<mxfile host="app.diagrams.net" agent="Mozilla/5.0 (Windows NT 10.0; Win64; x64) AppleWebKit/537.36 (KHTML, like Gecko) Chrome/129.0.0.0 Safari/537.36 Edg/129.0.0.0" version="24.7.16">
  <diagram name="Страница — 1" id="tB1U5vwxIxXS3iSNGx2T">
    <mxGraphModel dx="353" dy="225" grid="1" gridSize="10" guides="1" tooltips="1" connect="1" arrows="1" fold="1" page="1" pageScale="1" pageWidth="827" pageHeight="1169" math="0" shadow="0">
      <root>
        <mxCell id="0" />
        <mxCell id="1" parent="0" />
        <mxCell id="bN2xihe-iFG6T9XwWyze-30" style="edgeStyle=none;rounded=0;orthogonalLoop=1;jettySize=auto;html=1;exitX=0.5;exitY=0.5;exitDx=0;exitDy=0;exitPerimeter=0;entryX=0;entryY=1;entryDx=0;entryDy=0;" parent="1" source="bN2xihe-iFG6T9XwWyze-4" target="bN2xihe-iFG6T9XwWyze-7" edge="1">
          <mxGeometry relative="1" as="geometry" />
        </mxCell>
        <mxCell id="bN2xihe-iFG6T9XwWyze-45" style="edgeStyle=none;rounded=0;orthogonalLoop=1;jettySize=auto;html=1;exitX=0.5;exitY=0.5;exitDx=0;exitDy=0;exitPerimeter=0;entryX=0;entryY=0.5;entryDx=0;entryDy=0;" parent="1" source="bN2xihe-iFG6T9XwWyze-4" target="bN2xihe-iFG6T9XwWyze-44" edge="1">
          <mxGeometry relative="1" as="geometry" />
        </mxCell>
        <mxCell id="bN2xihe-iFG6T9XwWyze-4" value="Users" style="shape=umlActor;verticalLabelPosition=bottom;verticalAlign=top;html=1;fontStyle=0;fontSize=10;" parent="1" vertex="1">
          <mxGeometry x="80" y="160" width="30" height="60" as="geometry" />
        </mxCell>
        <mxCell id="bN2xihe-iFG6T9XwWyze-6" value="вход/регистрация" style="ellipse;whiteSpace=wrap;html=1;" parent="1" vertex="1">
          <mxGeometry x="180" y="490" width="90" height="50" as="geometry" />
        </mxCell>
        <mxCell id="bN2xihe-iFG6T9XwWyze-7" value="выбор занятия" style="ellipse;whiteSpace=wrap;html=1;" parent="1" vertex="1">
          <mxGeometry x="90" y="60" width="90" height="50" as="geometry" />
        </mxCell>
        <mxCell id="bN2xihe-iFG6T9XwWyze-11" value="запись на занятие в кружок" style="ellipse;whiteSpace=wrap;html=1;" parent="1" vertex="1">
          <mxGeometry x="280" y="125" width="90" height="50" as="geometry" />
        </mxCell>
        <mxCell id="bN2xihe-iFG6T9XwWyze-39" style="edgeStyle=none;rounded=0;orthogonalLoop=1;jettySize=auto;html=1;exitX=0.5;exitY=0.5;exitDx=0;exitDy=0;exitPerimeter=0;entryX=1;entryY=0.5;entryDx=0;entryDy=0;" parent="1" source="bN2xihe-iFG6T9XwWyze-15" target="bN2xihe-iFG6T9XwWyze-37" edge="1">
          <mxGeometry relative="1" as="geometry" />
        </mxCell>
        <mxCell id="bN2xihe-iFG6T9XwWyze-41" style="edgeStyle=none;rounded=0;orthogonalLoop=1;jettySize=auto;html=1;exitX=0.5;exitY=0.5;exitDx=0;exitDy=0;exitPerimeter=0;entryX=0.5;entryY=0;entryDx=0;entryDy=0;" parent="1" source="bN2xihe-iFG6T9XwWyze-15" target="bN2xihe-iFG6T9XwWyze-40" edge="1">
          <mxGeometry relative="1" as="geometry" />
        </mxCell>
        <mxCell id="bN2xihe-iFG6T9XwWyze-43" style="edgeStyle=none;rounded=0;orthogonalLoop=1;jettySize=auto;html=1;exitX=0.5;exitY=0.5;exitDx=0;exitDy=0;exitPerimeter=0;" parent="1" source="bN2xihe-iFG6T9XwWyze-15" target="bN2xihe-iFG6T9XwWyze-42" edge="1">
          <mxGeometry relative="1" as="geometry" />
        </mxCell>
        <mxCell id="bN2xihe-iFG6T9XwWyze-15" value="Admin" style="shape=umlActor;verticalLabelPosition=bottom;verticalAlign=top;html=1;outlineConnect=0;" parent="1" vertex="1">
          <mxGeometry x="582" y="55" width="30" height="60" as="geometry" />
        </mxCell>
        <mxCell id="bN2xihe-iFG6T9XwWyze-18" value="Подтверждение записи на занятие" style="ellipse;whiteSpace=wrap;html=1;" parent="1" vertex="1">
          <mxGeometry x="230" y="20" width="110" height="60" as="geometry" />
        </mxCell>
        <mxCell id="bN2xihe-iFG6T9XwWyze-19" value="" style="endArrow=classic;html=1;rounded=0;entryX=0.359;entryY=1.034;entryDx=0;entryDy=0;entryPerimeter=0;" parent="1" source="bN2xihe-iFG6T9XwWyze-15" target="bN2xihe-iFG6T9XwWyze-18" edge="1">
          <mxGeometry width="50" height="50" relative="1" as="geometry">
            <mxPoint x="350" y="280" as="sourcePoint" />
            <mxPoint x="400" y="230" as="targetPoint" />
          </mxGeometry>
        </mxCell>
        <mxCell id="bN2xihe-iFG6T9XwWyze-23" style="edgeStyle=none;rounded=0;orthogonalLoop=1;jettySize=auto;html=1;exitX=0.5;exitY=0.5;exitDx=0;exitDy=0;exitPerimeter=0;entryX=1.029;entryY=0.65;entryDx=0;entryDy=0;entryPerimeter=0;" parent="1" source="bN2xihe-iFG6T9XwWyze-15" target="bN2xihe-iFG6T9XwWyze-6" edge="1">
          <mxGeometry relative="1" as="geometry" />
        </mxCell>
        <mxCell id="bN2xihe-iFG6T9XwWyze-24" value="управление пользователями" style="ellipse;whiteSpace=wrap;html=1;" parent="1" vertex="1">
          <mxGeometry x="612" y="240" width="110" height="50" as="geometry" />
        </mxCell>
        <mxCell id="bN2xihe-iFG6T9XwWyze-25" style="edgeStyle=none;rounded=0;orthogonalLoop=1;jettySize=auto;html=1;exitX=0.5;exitY=0.5;exitDx=0;exitDy=0;exitPerimeter=0;entryX=0.665;entryY=-0.021;entryDx=0;entryDy=0;entryPerimeter=0;" parent="1" source="bN2xihe-iFG6T9XwWyze-15" target="bN2xihe-iFG6T9XwWyze-24" edge="1">
          <mxGeometry relative="1" as="geometry" />
        </mxCell>
        <mxCell id="bN2xihe-iFG6T9XwWyze-26" value="удаление пользователя" style="ellipse;whiteSpace=wrap;html=1;" parent="1" vertex="1">
          <mxGeometry x="680" y="360" width="110" height="50" as="geometry" />
        </mxCell>
        <mxCell id="bN2xihe-iFG6T9XwWyze-27" style="edgeStyle=none;rounded=0;orthogonalLoop=1;jettySize=auto;html=1;exitX=0.5;exitY=0;exitDx=0;exitDy=0;entryX=0.571;entryY=1.063;entryDx=0;entryDy=0;entryPerimeter=0;" parent="1" source="bN2xihe-iFG6T9XwWyze-26" target="bN2xihe-iFG6T9XwWyze-24" edge="1">
          <mxGeometry relative="1" as="geometry" />
        </mxCell>
        <mxCell id="bN2xihe-iFG6T9XwWyze-29" value="связь с поддержкой" style="ellipse;whiteSpace=wrap;html=1;" parent="1" vertex="1">
          <mxGeometry x="200" y="400" width="90" height="50" as="geometry" />
        </mxCell>
        <mxCell id="bN2xihe-iFG6T9XwWyze-31" style="edgeStyle=none;rounded=0;orthogonalLoop=1;jettySize=auto;html=1;exitX=0.5;exitY=0.5;exitDx=0;exitDy=0;exitPerimeter=0;entryX=0.049;entryY=0.197;entryDx=0;entryDy=0;entryPerimeter=0;" parent="1" source="bN2xihe-iFG6T9XwWyze-4" target="bN2xihe-iFG6T9XwWyze-29" edge="1">
          <mxGeometry relative="1" as="geometry" />
        </mxCell>
        <mxCell id="bN2xihe-iFG6T9XwWyze-32" style="edgeStyle=none;rounded=0;orthogonalLoop=1;jettySize=auto;html=1;exitX=0.5;exitY=0.5;exitDx=0;exitDy=0;exitPerimeter=0;entryX=0.249;entryY=0.009;entryDx=0;entryDy=0;entryPerimeter=0;" parent="1" source="bN2xihe-iFG6T9XwWyze-4" target="bN2xihe-iFG6T9XwWyze-6" edge="1">
          <mxGeometry relative="1" as="geometry" />
        </mxCell>
        <mxCell id="bN2xihe-iFG6T9XwWyze-33" style="edgeStyle=none;rounded=0;orthogonalLoop=1;jettySize=auto;html=1;exitX=0.5;exitY=0.5;exitDx=0;exitDy=0;exitPerimeter=0;entryX=1;entryY=0.6;entryDx=0;entryDy=0;entryPerimeter=0;" parent="1" source="bN2xihe-iFG6T9XwWyze-15" target="bN2xihe-iFG6T9XwWyze-29" edge="1">
          <mxGeometry relative="1" as="geometry" />
        </mxCell>
        <mxCell id="bN2xihe-iFG6T9XwWyze-35" style="edgeStyle=none;rounded=0;orthogonalLoop=1;jettySize=auto;html=1;exitX=0.5;exitY=0;exitDx=0;exitDy=0;entryX=0;entryY=1;entryDx=0;entryDy=0;" parent="1" source="bN2xihe-iFG6T9XwWyze-34" target="bN2xihe-iFG6T9XwWyze-24" edge="1">
          <mxGeometry relative="1" as="geometry" />
        </mxCell>
        <mxCell id="bN2xihe-iFG6T9XwWyze-34" value="добавления пользователя" style="ellipse;whiteSpace=wrap;html=1;" parent="1" vertex="1">
          <mxGeometry x="542" y="390" width="110" height="50" as="geometry" />
        </mxCell>
        <mxCell id="bN2xihe-iFG6T9XwWyze-37" value="управление записями&amp;nbsp;" style="ellipse;whiteSpace=wrap;html=1;" parent="1" vertex="1">
          <mxGeometry x="240" y="310" width="90" height="50" as="geometry" />
        </mxCell>
        <mxCell id="bN2xihe-iFG6T9XwWyze-38" style="edgeStyle=none;rounded=0;orthogonalLoop=1;jettySize=auto;html=1;exitX=0.5;exitY=0.5;exitDx=0;exitDy=0;exitPerimeter=0;entryX=0;entryY=0.3;entryDx=0;entryDy=0;entryPerimeter=0;" parent="1" source="bN2xihe-iFG6T9XwWyze-4" target="bN2xihe-iFG6T9XwWyze-37" edge="1">
          <mxGeometry relative="1" as="geometry" />
        </mxCell>
        <mxCell id="bN2xihe-iFG6T9XwWyze-40" value="управление занятиями&amp;nbsp;" style="ellipse;whiteSpace=wrap;html=1;" parent="1" vertex="1">
          <mxGeometry x="420" y="380" width="110" height="50" as="geometry" />
        </mxCell>
        <mxCell id="bN2xihe-iFG6T9XwWyze-42" value="управление расписанием&amp;nbsp;" style="ellipse;whiteSpace=wrap;html=1;" parent="1" vertex="1">
          <mxGeometry x="690" y="125" width="110" height="50" as="geometry" />
        </mxCell>
        <mxCell id="bN2xihe-iFG6T9XwWyze-44" value="просмотр описания занятия&amp;nbsp;" style="ellipse;whiteSpace=wrap;html=1;" parent="1" vertex="1">
          <mxGeometry x="220" y="190" width="90" height="50" as="geometry" />
        </mxCell>
        <mxCell id="bN2xihe-iFG6T9XwWyze-46" style="edgeStyle=none;rounded=0;orthogonalLoop=1;jettySize=auto;html=1;entryX=1.025;entryY=0.646;entryDx=0;entryDy=0;entryPerimeter=0;exitX=0.5;exitY=0.5;exitDx=0;exitDy=0;exitPerimeter=0;" parent="1" source="bN2xihe-iFG6T9XwWyze-15" target="bN2xihe-iFG6T9XwWyze-44" edge="1">
          <mxGeometry relative="1" as="geometry">
            <mxPoint x="605" y="150" as="sourcePoint" />
          </mxGeometry>
        </mxCell>
        <mxCell id="bN2xihe-iFG6T9XwWyze-47" style="edgeStyle=none;rounded=0;orthogonalLoop=1;jettySize=auto;html=1;exitX=0.5;exitY=0.5;exitDx=0;exitDy=0;exitPerimeter=0;entryX=0.016;entryY=0.7;entryDx=0;entryDy=0;entryPerimeter=0;" parent="1" source="bN2xihe-iFG6T9XwWyze-4" target="bN2xihe-iFG6T9XwWyze-18" edge="1">
          <mxGeometry relative="1" as="geometry" />
        </mxCell>
        <mxCell id="bN2xihe-iFG6T9XwWyze-48" value="определение роли" style="ellipse;whiteSpace=wrap;html=1;" parent="1" vertex="1">
          <mxGeometry x="680" y="20" width="110" height="50" as="geometry" />
        </mxCell>
        <mxCell id="bN2xihe-iFG6T9XwWyze-49" style="edgeStyle=none;rounded=0;orthogonalLoop=1;jettySize=auto;html=1;exitX=0.5;exitY=0.5;exitDx=0;exitDy=0;exitPerimeter=0;entryX=0.35;entryY=0.957;entryDx=0;entryDy=0;entryPerimeter=0;" parent="1" source="bN2xihe-iFG6T9XwWyze-15" target="bN2xihe-iFG6T9XwWyze-48" edge="1">
          <mxGeometry relative="1" as="geometry" />
        </mxCell>
        <mxCell id="Qb_xXpdOsBD7_pKDobsg-1" value="добавление описания занятия&amp;nbsp;" style="ellipse;whiteSpace=wrap;html=1;" parent="1" vertex="1">
          <mxGeometry x="440" y="25" width="90" height="50" as="geometry" />
        </mxCell>
        <mxCell id="SAGCNqZFQDjrAlOtXuO8-11" style="edgeStyle=orthogonalEdgeStyle;rounded=0;orthogonalLoop=1;jettySize=auto;html=1;exitX=0.5;exitY=0.5;exitDx=0;exitDy=0;exitPerimeter=0;entryX=1;entryY=0.5;entryDx=0;entryDy=0;" edge="1" parent="1" source="SAGCNqZFQDjrAlOtXuO8-2" target="bN2xihe-iFG6T9XwWyze-42">
          <mxGeometry relative="1" as="geometry" />
        </mxCell>
        <mxCell id="SAGCNqZFQDjrAlOtXuO8-25" style="edgeStyle=orthogonalEdgeStyle;rounded=0;orthogonalLoop=1;jettySize=auto;html=1;exitX=0.5;exitY=0.5;exitDx=0;exitDy=0;exitPerimeter=0;" edge="1" parent="1" source="SAGCNqZFQDjrAlOtXuO8-2">
          <mxGeometry relative="1" as="geometry">
            <mxPoint x="490" y="440" as="targetPoint" />
            <Array as="points">
              <mxPoint x="625" y="480" />
              <mxPoint x="490" y="480" />
            </Array>
          </mxGeometry>
        </mxCell>
        <mxCell id="SAGCNqZFQDjrAlOtXuO8-2" value="Teacher" style="shape=umlActor;verticalLabelPosition=bottom;verticalAlign=top;html=1;outlineConnect=0;" vertex="1" parent="1">
          <mxGeometry x="610" y="510" width="30" height="60" as="geometry" />
        </mxCell>
        <mxCell id="SAGCNqZFQDjrAlOtXuO8-3" value="редактирование занятия" style="ellipse;whiteSpace=wrap;html=1;" vertex="1" parent="1">
          <mxGeometry x="340" y="490" width="110" height="50" as="geometry" />
        </mxCell>
        <mxCell id="SAGCNqZFQDjrAlOtXuO8-6" style="edgeStyle=orthogonalEdgeStyle;rounded=0;orthogonalLoop=1;jettySize=auto;html=1;exitX=0.5;exitY=0.5;exitDx=0;exitDy=0;exitPerimeter=0;entryX=0.412;entryY=1;entryDx=0;entryDy=0;entryPerimeter=0;" edge="1" parent="1" source="SAGCNqZFQDjrAlOtXuO8-2" target="SAGCNqZFQDjrAlOtXuO8-3">
          <mxGeometry relative="1" as="geometry" />
        </mxCell>
        <mxCell id="SAGCNqZFQDjrAlOtXuO8-12" style="edgeStyle=none;rounded=0;orthogonalLoop=1;jettySize=auto;html=1;entryX=0;entryY=1;entryDx=0;entryDy=0;" edge="1" parent="1" source="bN2xihe-iFG6T9XwWyze-11">
          <mxGeometry relative="1" as="geometry">
            <mxPoint x="170" y="177" as="sourcePoint" />
            <mxPoint x="178" y="90" as="targetPoint" />
          </mxGeometry>
        </mxCell>
        <mxCell id="SAGCNqZFQDjrAlOtXuO8-13" value="Include" style="rounded=0;whiteSpace=wrap;html=1;" vertex="1" parent="1">
          <mxGeometry x="140" y="100" width="46" height="10" as="geometry" />
        </mxCell>
        <mxCell id="SAGCNqZFQDjrAlOtXuO8-15" value="Include" style="rounded=0;whiteSpace=wrap;html=1;" vertex="1" parent="1">
          <mxGeometry x="620" y="280" width="46" height="10" as="geometry" />
        </mxCell>
        <mxCell id="SAGCNqZFQDjrAlOtXuO8-16" value="Include" style="rounded=0;whiteSpace=wrap;html=1;" vertex="1" parent="1">
          <mxGeometry x="350" y="490" width="46" height="10" as="geometry" />
        </mxCell>
        <mxCell id="SAGCNqZFQDjrAlOtXuO8-18" value="" style="endArrow=classic;html=1;rounded=0;entryX=0.555;entryY=0;entryDx=0;entryDy=0;entryPerimeter=0;exitX=0.346;exitY=1.018;exitDx=0;exitDy=0;exitPerimeter=0;" edge="1" parent="1" source="Qb_xXpdOsBD7_pKDobsg-1" target="SAGCNqZFQDjrAlOtXuO8-3">
          <mxGeometry width="50" height="50" relative="1" as="geometry">
            <mxPoint x="494.5" y="389" as="sourcePoint" />
            <mxPoint x="333.5" y="240" as="targetPoint" />
          </mxGeometry>
        </mxCell>
        <mxCell id="SAGCNqZFQDjrAlOtXuO8-27" style="edgeStyle=orthogonalEdgeStyle;rounded=0;orthogonalLoop=1;jettySize=auto;html=1;exitX=0.5;exitY=0;exitDx=0;exitDy=0;exitPerimeter=0;entryX=0.97;entryY=0.713;entryDx=0;entryDy=0;entryPerimeter=0;" edge="1" parent="1" source="bN2xihe-iFG6T9XwWyze-15" target="Qb_xXpdOsBD7_pKDobsg-1">
          <mxGeometry relative="1" as="geometry" />
        </mxCell>
      </root>
    </mxGraphModel>
  </diagram>
</mxfile>
